<?xml version="1.0" encoding="UTF-8" standalone="no"?>
<svg
   version="1.1"
   id="Layer_1"
   x="0px"
   y="0px"
   viewBox="0 0 75.016664 78.291857"
   xml:space="preserve"
   sodipodi:docname="edit-pen.svg"
   inkscape:version="1.1 (c68e22c387, 2021-05-23)"
   width="75.016663"
   height="78.291855"
   xmlns:inkscape="http://www.inkscape.org/namespaces/inkscape"
   xmlns:sodipodi="http://sodipodi.sourceforge.net/DTD/sodipodi-0.dtd"
   xmlns="http://www.w3.org/2000/svg"
   xmlns:svg="http://www.w3.org/2000/svg"><defs
     id="defs11" /><sodipodi:namedview
     id="namedview9"
     pagecolor="#ffffff"
     bordercolor="#666666"
     borderopacity="1.0"
     inkscape:pageshadow="2"
     inkscape:pageopacity="0.0"
     inkscape:pagecheckerboard="0"
     showgrid="false"
     inkscape:zoom="3.0498584"
     inkscape:cx="25.7389"
     inkscape:cy="59.838844"
     inkscape:window-width="1366"
     inkscape:window-height="715"
     inkscape:window-x="-8"
     inkscape:window-y="-8"
     inkscape:window-maximized="1"
     inkscape:current-layer="Layer_1" /><style
     type="text/css"
     id="style2">.st0{fill-rule:evenodd;clip-rule:evenodd;}</style><g
     id="g6"
     transform="matrix(0.63711955,0,0,0.63711955,0.00857538,-5.8592688e-4)"
     style="fill:#203c76;fill-opacity:1"
     inkscape:export-filename="C:\Users\Saram\Documents\ilo-mqbaka\DACMI\____front____\dacmi-front\src\media\edit-wh.png"
     inkscape:export-xdpi="192"
     inkscape:export-ydpi="192"><path
       class="st0"
       d="M 94.62,2 C 93.16,0.64 91.48,-0.09 89.6,0.01 c -1.88,0 -3.56,0.73 -4.92,2.2 l -11.09,11.51 31.07,30.03 11.19,-11.72 c 1.36,-1.36 1.88,-3.14 1.88,-5.02 0,-1.88 -0.73,-3.66 -2.09,-4.92 z M 41.44,109.58 c -4.08,1.36 -8.26,2.62 -12.35,3.98 -4.08,1.36 -8.16,2.72 -12.35,4.08 -9.73,3.14 -15.07,4.92 -16.22,5.23 -1.15,0.31 -0.42,-4.18 1.99,-13.6 L 10.25,79.66 10.89,79 41.45,109.56 Z M 22.2,67.25 65.19,22.43 96.26,52.35 52.75,97.8 Z"
       id="path4"
       style="fill:#203c76;fill-opacity:1" /></g></svg>
