<?xml version="1.0" encoding="UTF-8" standalone="no"?>
<svg
   xmlns:dc="http://purl.org/dc/elements/1.1/"
   xmlns:cc="http://creativecommons.org/ns#"
   xmlns:rdf="http://www.w3.org/1999/02/22-rdf-syntax-ns#"
   xmlns:svg="http://www.w3.org/2000/svg"
   xmlns="http://www.w3.org/2000/svg"
   xmlns:sodipodi="http://sodipodi.sourceforge.net/DTD/sodipodi-0.dtd"
   xmlns:inkscape="http://www.inkscape.org/namespaces/inkscape"
   inkscape:version="1.0 (4035a4fb49, 2020-05-01)"
   sodipodi:docname="exclamation.svg"
   xml:space="preserve"
   style="enable-background:new 0 0 438.533 438.533;"
   viewBox="0 0 438.533 438.533"
   height="438.533px"
   width="438.533px"
   y="0px"
   x="0px"
   id="Capa_1"
   version="1.1"><metadata
   id="metadata41"><rdf:RDF><cc:Work
       rdf:about=""><dc:format>image/svg+xml</dc:format><dc:type
         rdf:resource="http://purl.org/dc/dcmitype/StillImage" /><dc:title></dc:title></cc:Work></rdf:RDF></metadata><defs
   id="defs39" /><sodipodi:namedview
   inkscape:current-layer="Capa_1"
   inkscape:window-maximized="1"
   inkscape:window-y="-6"
   inkscape:window-x="-6"
   inkscape:cy="245.95043"
   inkscape:cx="241.54836"
   inkscape:zoom="0.9739119"
   showgrid="false"
   id="namedview37"
   inkscape:window-height="812"
   inkscape:window-width="1440"
   inkscape:pageshadow="2"
   inkscape:pageopacity="0"
   guidetolerance="10"
   gridtolerance="10"
   objecttolerance="10"
   borderopacity="1"
   bordercolor="#666666"
   pagecolor="#ffffff" />
<g
   style="fill:#203c76;fill-opacity:1"
   id="g4">
	<path
   style="fill:#203c76;fill-opacity:1"
   id="path2"
   d="M 409.133,109.203 C 389.525,75.611 362.928,49.014 329.335,29.407 295.736,9.801 259.058,0 219.273,0 179.492,0 142.807,9.801 109.21,29.407 75.615,49.011 49.018,75.608 29.41,109.203 9.801,142.8 0,179.489 0,219.267 c 0,39.778 9.804,76.463 29.407,110.062 19.607,33.585 46.204,60.189 79.799,79.798 33.597,19.605 70.283,29.407 110.063,29.407 39.78,0 76.47,-9.802 110.065,-29.407 33.593,-19.602 60.189,-46.206 79.795,-79.798 19.603,-33.599 29.403,-70.287 29.403,-110.062 0.001,-39.778 -9.8,-76.472 -29.399,-110.064 z M 255.82,356.021 c 0,2.669 -0.862,4.9 -2.573,6.707 -1.711,1.807 -3.806,2.711 -6.283,2.711 h -54.818 c -2.472,0 -4.663,-0.952 -6.565,-2.854 -1.904,-1.903 -2.854,-4.093 -2.854,-6.563 V 301.78 c 0,-2.478 0.95,-4.668 2.854,-6.571 1.903,-1.902 4.093,-2.851 6.565,-2.851 h 54.818 c 2.478,0 4.579,0.907 6.283,2.707 1.711,1.817 2.573,4.045 2.573,6.715 z m -0.574,-98.209 c -0.192,1.902 -1.188,3.568 -2.991,4.996 -1.813,1.424 -4.045,2.135 -6.708,2.135 h -52.822 c -2.666,0 -4.95,-0.711 -6.853,-2.135 -1.904,-1.428 -2.857,-3.094 -2.857,-4.996 L 178.162,80.51 c 0,-2.288 0.95,-3.997 2.852,-5.14 1.906,-1.521 4.19,-2.284 6.854,-2.284 h 62.819 c 2.666,0 4.948,0.76 6.851,2.284 1.903,1.143 2.848,2.856 2.848,5.14 z" />
</g>
<g
   id="g6">
</g>
<g
   id="g8">
</g>
<g
   id="g10">
</g>
<g
   id="g12">
</g>
<g
   id="g14">
</g>
<g
   id="g16">
</g>
<g
   id="g18">
</g>
<g
   id="g20">
</g>
<g
   id="g22">
</g>
<g
   id="g24">
</g>
<g
   id="g26">
</g>
<g
   id="g28">
</g>
<g
   id="g30">
</g>
<g
   id="g32">
</g>
<g
   id="g34">
</g>
</svg>
