<?xml version="1.0" encoding="UTF-8" standalone="no"?>
<svg
   xmlns:dc="http://purl.org/dc/elements/1.1/"
   xmlns:cc="http://creativecommons.org/ns#"
   xmlns:rdf="http://www.w3.org/1999/02/22-rdf-syntax-ns#"
   xmlns:svg="http://www.w3.org/2000/svg"
   xmlns="http://www.w3.org/2000/svg"
   xmlns:sodipodi="http://sodipodi.sourceforge.net/DTD/sodipodi-0.dtd"
   xmlns:inkscape="http://www.inkscape.org/namespaces/inkscape"
   inkscape:version="1.0 (4035a4fb49, 2020-05-01)"
   height="1973.5955"
   width="1977.2477"
   sodipodi:docname="gear.svg"
   id="svg12"
   y="0px"
   x="0px"
   preserveAspectRatio="xMidYMid meet"
   viewBox="0 0 1977.2477 1973.5955"
   version="1.0">
  <metadata
     id="metadata18">
    <rdf:RDF>
      <cc:Work
         rdf:about="">
        <dc:format>image/svg+xml</dc:format>
        <dc:type
           rdf:resource="http://purl.org/dc/dcmitype/StillImage" />
        <dc:title></dc:title>
      </cc:Work>
    </rdf:RDF>
  </metadata>
  <defs
     id="defs16" />
  <sodipodi:namedview
     inkscape:current-layer="layer1"
     inkscape:window-maximized="1"
     inkscape:window-y="-6"
     inkscape:window-x="-6"
     inkscape:cy="1364.8567"
     inkscape:cx="776.71388"
     inkscape:zoom="0.16683301"
     showgrid="false"
     id="namedview14"
     inkscape:window-height="812"
     inkscape:window-width="1440"
     inkscape:pageshadow="2"
     inkscape:pageopacity="0"
     guidetolerance="10"
     gridtolerance="10"
     objecttolerance="10"
     borderopacity="1"
     bordercolor="#666666"
     pagecolor="#ffffff" />
  <text
     id="text8"
     font-family="'Helvetica Neue', Helvetica, Arial-Unicode, Arial, Sans-serif"
     font-weight="bold"
     font-size="5px"
     fill="#000000"
     y="2024.4578"
     x="-25.9">Created by Janae Crawford</text>
  <text
     id="text10"
     font-family="'Helvetica Neue', Helvetica, Arial-Unicode, Arial, Sans-serif"
     font-weight="bold"
     font-size="5px"
     fill="#000000"
     y="2029.4578"
     x="-25.9">from the Noun Project</text>
  <g
     style="display:none;opacity:1"
     inkscape:label="Layer 1"
     id="layer1"
     inkscape:groupmode="layer">
    <rect
       y="-131.86839"
       x="-317.68295"
       height="2277.7268"
       width="2835.1704"
       id="rect844"
       style="opacity:0.995;fill:#203c76;fill-rule:evenodd;stroke:#203c76;stroke-width:3.14835;stroke-linecap:round" />
  </g>
  <g
     style="fill:#ffffff"
     id="g6"
     stroke="none"
     fill="#000000"
     transform="matrix(0.1,0,0,-0.1,-25.9,2009.4578)">
    <path
       style="fill:#ffffff"
       id="path2"
       d="m 9405,20090 c -88,-4 -213,-13 -277,-20 -92,-10 -139,-11 -215,-2 -312,37 -501,-6 -644,-148 -75,-73 -95,-129 -115,-319 -8,-80 -19,-165 -24,-188 -6,-23 -15,-97 -21,-165 -5,-67 -19,-175 -29,-238 -10,-63 -21,-153 -25,-200 -3,-47 -15,-141 -25,-210 -11,-69 -24,-177 -30,-240 -6,-63 -17,-153 -25,-200 -8,-47 -19,-139 -25,-205 -6,-66 -17,-156 -25,-200 -8,-44 -19,-136 -25,-205 -14,-151 -34,-265 -54,-295 -9,-14 -47,-33 -108,-54 -195,-68 -344,-127 -409,-162 -20,-10 -42,-19 -49,-19 -13,0 -48,-14 -260,-108 -142,-62 -191,-72 -242,-48 -20,10 -108,74 -196,144 -261,207 -370,292 -487,382 -114,87 -214,165 -475,372 -82,65 -192,145 -247,179 -108,68 -242,173 -371,292 -94,87 -118,102 -211,128 -89,26 -153,24 -241,-6 -131,-45 -353,-173 -465,-269 -33,-28 -98,-83 -145,-121 -470,-380 -952,-860 -1365,-1355 -93,-112 -204,-240 -246,-285 -163,-172 -319,-474 -319,-615 0,-60 34,-173 67,-225 15,-22 54,-69 88,-105 95,-101 216,-254 290,-370 37,-58 111,-159 164,-226 111,-139 213,-270 361,-464 58,-76 126,-162 151,-191 25,-30 81,-101 124,-159 44,-58 110,-143 148,-189 115,-141 115,-141 -9,-392 -129,-260 -279,-614 -333,-790 -12,-37 -39,-68 -77,-87 -11,-6 -76,-16 -145,-22 -68,-6 -160,-17 -204,-25 -44,-8 -136,-19 -205,-25 -69,-6 -161,-17 -205,-25 -44,-8 -134,-19 -200,-25 -66,-6 -159,-18 -208,-26 -48,-8 -156,-21 -240,-29 -83,-8 -186,-21 -227,-29 -41,-8 -118,-17 -170,-21 -52,-4 -133,-13 -180,-21 -47,-8 -146,-21 -222,-29 -178,-19 -236,-40 -309,-115 -102,-104 -149,-218 -155,-370 -2,-47 -5,-185 -7,-307 -7,-318 -16,-523 -33,-728 -20,-232 -20,-675 0,-950 19,-263 27,-448 32,-735 6,-349 10,-408 34,-483 25,-79 51,-127 99,-182 86,-98 156,-129 323,-145 62,-6 149,-17 193,-25 44,-8 136,-19 205,-25 69,-6 161,-17 205,-25 44,-8 150,-21 236,-30 86,-8 181,-20 210,-25 30,-6 118,-17 197,-25 78,-8 182,-21 230,-29 48,-8 125,-17 172,-21 47,-3 139,-15 205,-25 66,-10 151,-21 189,-25 90,-9 116,-33 146,-136 40,-135 119,-364 170,-489 26,-65 70,-174 99,-248 12,-29 25,-60 31,-70 5,-9 36,-78 70,-153 62,-139 72,-192 47,-234 -19,-33 -196,-264 -247,-325 -26,-30 -82,-102 -125,-160 -43,-58 -99,-130 -125,-160 -26,-30 -82,-102 -125,-160 -43,-58 -114,-148 -156,-200 -42,-52 -105,-140 -140,-195 -64,-103 -195,-270 -305,-387 -72,-77 -89,-106 -115,-197 -36,-125 -18,-219 79,-401 54,-103 162,-273 181,-285 6,-3 72,-83 148,-178 248,-311 419,-502 713,-801 306,-310 617,-591 824,-743 277,-205 444,-303 594,-350 94,-29 136,-28 247,5 59,18 83,33 155,96 165,145 316,264 415,326 55,34 145,99 200,144 55,46 136,109 180,141 44,32 116,89 160,125 44,37 116,93 160,125 44,32 116,88 160,125 44,37 122,97 173,134 128,95 139,95 289,18 190,-97 421,-202 558,-252 28,-10 88,-35 135,-55 120,-51 217,-87 354,-131 87,-29 123,-45 134,-62 20,-31 48,-183 62,-334 6,-68 19,-177 30,-243 10,-66 21,-158 25,-205 3,-47 13,-123 20,-170 8,-47 22,-155 30,-240 9,-84 20,-173 25,-197 6,-23 17,-116 26,-205 8,-90 19,-181 24,-203 5,-22 16,-106 24,-186 19,-180 39,-238 110,-310 66,-68 136,-112 217,-137 99,-31 722,-46 1784,-43 1232,2 1454,8 1565,38 134,37 268,147 308,255 12,33 26,104 32,170 6,62 17,149 25,193 8,44 19,136 25,205 6,69 17,161 25,205 8,44 21,150 30,235 8,85 21,193 29,240 8,47 18,123 21,170 4,47 15,137 25,200 10,63 22,156 25,205 10,122 40,307 57,341 17,37 26,42 268,128 360,130 459,171 798,337 282,138 270,137 413,32 57,-42 140,-106 184,-143 44,-37 116,-93 160,-125 44,-32 105,-79 135,-105 30,-26 102,-82 160,-125 58,-43 143,-110 190,-149 47,-38 137,-103 200,-144 127,-82 273,-197 392,-308 93,-87 140,-111 245,-126 121,-18 198,-1 348,76 66,34 181,103 256,153 75,50 151,99 169,108 18,9 74,56 124,104 50,48 129,119 176,158 48,40 114,104 149,143 35,39 107,106 160,149 53,43 146,132 207,197 62,66 214,222 339,348 213,214 373,399 463,534 21,31 73,107 115,168 136,197 237,416 237,513 0,54 -37,180 -67,226 -15,22 -54,69 -88,105 -97,103 -226,267 -290,370 -33,52 -105,152 -160,221 -118,148 -221,280 -365,469 -58,75 -126,161 -151,191 -58,69 -235,303 -250,331 -6,11 -9,37 -5,57 5,31 65,175 136,326 10,22 33,74 50,115 17,41 42,100 55,130 31,74 125,328 125,339 0,17 77,247 94,279 23,44 51,59 121,67 33,4 116,15 185,25 69,10 163,21 210,25 47,4 137,15 200,25 63,10 153,21 200,25 47,3 123,13 170,21 47,8 155,21 240,29 85,9 191,22 235,30 44,8 136,19 205,25 69,6 161,17 205,25 44,8 131,19 193,25 66,6 137,20 170,32 110,41 221,177 256,313 29,116 40,528 37,1465 -4,1403 -11,1761 -38,1860 -23,85 -70,163 -135,228 -78,79 -130,98 -317,118 -80,8 -164,19 -187,24 -23,5 -95,14 -160,20 -65,6 -175,19 -244,30 -69,10 -161,22 -205,25 -44,4 -136,15 -205,25 -69,11 -177,24 -240,30 -63,6 -153,17 -200,25 -47,8 -139,19 -205,25 -66,6 -156,17 -200,25 -44,7 -136,19 -203,25 -68,6 -134,15 -145,20 -41,15 -65,55 -111,175 -99,264 -168,423 -292,676 -118,238 -122,253 -96,310 11,24 49,79 86,122 36,43 98,122 137,175 40,53 101,131 136,174 35,42 103,128 151,191 120,158 228,296 355,456 59,75 131,174 159,220 52,85 187,257 322,410 61,69 78,95 96,152 46,146 32,234 -66,424 -54,105 -192,315 -261,397 -156,186 -279,337 -357,438 -114,147 -696,728 -875,872 -69,56 -157,129 -196,163 -38,34 -95,79 -125,100 -30,22 -84,63 -120,91 -157,126 -399,265 -524,303 -82,25 -137,26 -219,5 -88,-23 -123,-43 -217,-129 -128,-116 -284,-238 -385,-301 -49,-31 -142,-97 -205,-148 -63,-51 -153,-121 -200,-156 -47,-35 -110,-85 -140,-110 -30,-26 -107,-86 -170,-133 -127,-96 -277,-214 -475,-371 -182,-145 -215,-166 -263,-166 -46,0 -86,13 -202,68 -210,98 -506,217 -665,265 -77,24 -119,44 -137,64 -23,25 -45,134 -58,280 -6,65 -19,174 -30,243 -10,69 -22,163 -25,210 -4,47 -13,124 -21,172 -8,48 -21,154 -29,235 -9,81 -22,186 -30,233 -7,47 -17,123 -20,170 -4,47 -15,140 -26,207 -10,68 -24,176 -29,240 -6,65 -17,152 -24,193 -8,41 -17,111 -21,155 -10,119 -23,188 -47,242 -25,56 -109,141 -182,182 -63,37 -198,72 -268,72 -29,-1 -147,1 -263,4 -355,10 -1840,13 -2010,5 z m 1420,-1050 c 256,-23 257,-24 269,-127 4,-32 14,-94 21,-138 8,-44 19,-134 25,-200 6,-66 17,-158 25,-205 8,-47 19,-139 25,-205 6,-66 17,-158 26,-205 8,-47 19,-139 24,-205 6,-66 17,-156 25,-200 8,-44 21,-147 30,-230 22,-221 59,-425 86,-480 13,-26 38,-59 56,-74 66,-55 284,-153 491,-221 114,-38 250,-86 302,-108 52,-22 106,-43 120,-47 14,-4 89,-39 167,-76 78,-38 144,-69 147,-69 28,0 450,-203 706,-339 74,-39 187,-95 250,-124 114,-51 116,-52 210,-51 88,0 100,3 165,35 76,38 265,172 412,291 50,41 115,92 144,113 30,22 99,76 154,120 55,45 136,108 180,140 44,32 116,89 160,125 44,37 134,108 200,158 109,82 180,138 416,322 88,68 115,78 157,56 81,-42 440,-363 722,-646 204,-204 448,-471 492,-539 31,-45 23,-90 -23,-146 -23,-28 -86,-108 -140,-180 -55,-71 -131,-170 -170,-220 -215,-276 -345,-441 -434,-554 -55,-69 -118,-151 -140,-181 -22,-30 -77,-101 -123,-158 -130,-160 -251,-330 -290,-407 -31,-62 -36,-81 -40,-162 -6,-127 3,-153 136,-406 110,-207 237,-467 296,-602 158,-363 196,-459 261,-650 24,-71 58,-164 75,-205 17,-41 47,-113 66,-160 120,-290 182,-383 296,-441 47,-24 272,-64 475,-84 79,-8 183,-21 231,-29 48,-8 143,-20 212,-26 69,-6 143,-15 165,-20 22,-5 112,-17 200,-25 88,-9 196,-22 240,-30 44,-7 135,-19 203,-25 68,-6 160,-18 205,-26 45,-8 120,-17 167,-20 116,-9 146,-22 158,-71 5,-21 17,-126 26,-233 23,-272 23,-1175 1,-1342 -19,-134 -30,-175 -55,-188 -9,-5 -64,-14 -121,-19 -57,-6 -144,-17 -194,-25 -49,-8 -142,-20 -205,-26 -63,-5 -153,-17 -198,-25 -46,-8 -141,-19 -210,-25 -70,-6 -161,-17 -202,-25 -41,-7 -131,-19 -200,-25 -69,-6 -179,-20 -245,-30 -66,-10 -158,-21 -204,-25 -141,-11 -422,-62 -501,-90 -145,-53 -217,-118 -271,-246 -64,-148 -78,-191 -119,-351 -22,-86 -46,-172 -54,-190 -8,-18 -33,-89 -55,-158 -22,-69 -51,-154 -65,-190 -64,-166 -170,-433 -186,-465 -5,-11 -30,-67 -56,-125 -50,-114 -72,-161 -190,-410 l -79,-165 v -125 -125 l 38,-70 c 45,-84 151,-234 262,-370 45,-55 108,-136 140,-180 33,-44 104,-137 160,-207 236,-298 314,-397 374,-477 35,-47 92,-120 126,-161 34,-41 88,-111 120,-155 32,-44 81,-107 108,-139 62,-75 71,-98 53,-139 -57,-137 -824,-909 -1162,-1170 -98,-76 -108,-75 -235,27 -42,34 -120,95 -174,136 -230,177 -389,300 -486,377 -186,148 -292,231 -409,319 -63,48 -160,124 -215,169 -139,114 -320,239 -390,272 -46,21 -80,28 -146,31 -77,4 -92,1 -160,-26 -41,-16 -104,-48 -140,-69 -35,-22 -143,-83 -239,-137 -96,-54 -216,-122 -266,-151 -51,-29 -161,-85 -245,-125 -85,-40 -210,-99 -279,-132 -168,-80 -351,-155 -695,-283 -253,-95 -410,-187 -449,-264 -20,-39 -55,-231 -71,-398 -9,-82 -22,-186 -30,-233 -8,-47 -19,-139 -24,-206 -6,-66 -17,-156 -25,-200 -8,-43 -19,-133 -25,-199 -6,-65 -20,-180 -30,-255 -11,-74 -27,-193 -35,-265 -27,-232 -46,-338 -62,-356 -23,-26 -59,-29 -414,-38 -397,-10 -1050,3 -1205,25 -193,27 -198,29 -210,119 -4,28 -13,88 -21,135 -7,47 -18,139 -24,205 -6,66 -20,174 -30,240 -10,66 -22,161 -25,210 -4,50 -13,122 -20,161 -8,40 -19,127 -25,195 -6,68 -18,162 -26,209 -7,47 -21,155 -29,240 -9,85 -18,162 -20,170 -3,8 -14,69 -25,134 -28,169 -38,180 -280,301 -58,30 -148,70 -200,90 -52,20 -120,46 -150,59 -52,22 -116,46 -267,100 -38,14 -115,39 -173,57 -101,31 -275,110 -332,150 -15,11 -96,54 -180,96 -84,41 -175,90 -203,108 -69,45 -401,230 -510,285 -90,45 -90,45 -195,45 -99,-1 -109,-3 -170,-34 -78,-41 -229,-146 -365,-256 -55,-45 -147,-116 -205,-160 -58,-43 -130,-99 -160,-125 -30,-26 -102,-82 -160,-125 -58,-43 -130,-99 -160,-125 -30,-25 -102,-82 -160,-125 -58,-44 -150,-116 -206,-161 -151,-122 -243,-184 -274,-184 -38,0 -86,35 -266,195 -282,250 -633,612 -877,903 -153,182 -155,190 -70,308 31,43 93,124 138,179 45,55 108,136 140,180 32,44 89,116 125,160 37,44 93,116 125,160 32,44 88,116 125,160 37,44 93,116 125,160 33,44 97,127 144,185 122,150 247,328 277,397 41,91 44,189 10,300 -15,48 -49,131 -76,183 -26,52 -51,106 -55,120 -4,13 -35,81 -68,150 -84,175 -168,378 -244,585 -14,39 -33,93 -44,120 -75,203 -83,229 -147,470 -62,234 -158,468 -218,535 -48,53 -143,111 -234,142 -80,28 -330,71 -518,88 -62,6 -152,18 -200,26 -48,8 -139,19 -202,25 -63,5 -153,16 -200,24 -47,8 -139,19 -204,25 -65,6 -173,19 -240,29 -67,10 -175,24 -241,30 -148,14 -231,33 -256,58 -86,85 -86,1693 0,1813 22,30 117,52 304,70 67,6 176,19 242,30 66,10 158,21 205,25 47,3 139,14 205,25 66,10 158,22 205,25 47,4 139,15 205,25 66,10 156,22 200,25 154,12 441,64 518,94 86,33 175,89 212,133 31,36 80,131 106,203 10,27 43,111 74,185 31,74 68,162 82,195 51,123 127,352 173,515 61,222 118,380 210,580 34,74 68,151 75,171 7,19 44,100 81,180 l 69,144 v 115 c 0,105 -2,120 -28,175 -33,71 -160,253 -272,390 -45,55 -108,136 -140,180 -32,44 -88,116 -125,160 -36,44 -105,132 -153,195 -97,128 -215,279 -371,475 -200,251 -211,275 -160,351 27,39 48,64 244,289 215,247 813,825 950,918 58,40 110,13 330,-167 41,-34 122,-97 180,-141 58,-43 138,-106 179,-139 40,-34 126,-101 191,-151 195,-149 318,-245 444,-346 172,-138 341,-257 412,-290 78,-37 198,-49 259,-26 272,104 324,126 593,249 108,49 213,96 232,103 19,8 73,30 120,50 47,20 101,43 120,50 19,7 73,30 120,50 225,96 464,173 605,195 83,12 248,69 348,119 61,30 80,47 125,106 75,100 106,192 141,408 16,100 32,218 36,262 3,44 15,134 25,200 10,66 22,158 25,205 4,47 15,139 25,205 11,66 22,158 25,205 4,47 15,139 26,205 10,66 23,170 29,230 17,190 52,387 71,406 12,12 42,19 106,23 113,9 317,26 413,36 41,4 244,8 450,9 303,1 417,-3 595,-19 z" />
    <path
       style="fill:#ffffff"
       id="path4"
       d="m 9970,15284 c -25,-2 -130,-11 -235,-19 -289,-23 -679,-91 -949,-166 -605,-167 -1252,-492 -1746,-875 -342,-266 -691,-620 -947,-959 -93,-124 -307,-455 -377,-584 -175,-320 -317,-652 -410,-956 -41,-131 -55,-188 -121,-470 -46,-195 -84,-489 -100,-770 -14,-238 -14,-292 -1,-523 23,-385 60,-619 163,-1026 165,-653 508,-1339 936,-1871 292,-363 634,-687 997,-944 278,-198 368,-253 645,-397 323,-167 642,-290 1055,-403 322,-88 890,-161 1259,-161 380,0 936,73 1296,170 569,154 1154,429 1625,764 455,323 883,752 1208,1210 372,523 675,1206 806,1816 100,465 150,1070 116,1395 -5,50 -14,169 -20,265 -16,265 -51,449 -159,848 -35,127 -55,182 -126,352 -29,69 -72,172 -96,230 -116,284 -373,734 -571,1004 -268,364 -624,730 -981,1009 -154,121 -484,334 -668,434 -558,301 -1047,467 -1679,567 -260,42 -759,74 -920,60 z m 498,-1234 c 453,-35 951,-173 1353,-375 370,-185 625,-361 944,-651 221,-201 509,-558 677,-839 114,-190 248,-485 305,-670 43,-139 149,-554 158,-620 3,-27 18,-99 33,-160 26,-109 26,-113 27,-510 0,-392 -1,-404 -28,-580 -105,-664 -363,-1259 -780,-1800 -133,-171 -467,-506 -642,-642 -251,-195 -585,-391 -880,-518 -151,-65 -462,-166 -625,-203 -469,-108 -968,-127 -1448,-57 -574,84 -1198,337 -1662,675 -564,410 -987,930 -1272,1560 -164,362 -261,731 -313,1180 -20,178 -20,590 0,765 64,564 197,991 452,1460 367,674 959,1247 1644,1590 257,130 531,233 777,294 144,36 473,91 602,101 143,11 539,11 678,0 z" />
  </g>
</svg>
