<?xml version="1.0" encoding="UTF-8" standalone="no"?>
<svg
   xmlns:dc="http://purl.org/dc/elements/1.1/"
   xmlns:cc="http://creativecommons.org/ns#"
   xmlns:rdf="http://www.w3.org/1999/02/22-rdf-syntax-ns#"
   xmlns:svg="http://www.w3.org/2000/svg"
   xmlns="http://www.w3.org/2000/svg"
   xmlns:sodipodi="http://sodipodi.sourceforge.net/DTD/sodipodi-0.dtd"
   xmlns:inkscape="http://www.inkscape.org/namespaces/inkscape"
   sodipodi:docname="id-card.svg"
   inkscape:version="1.0 (4035a4fb49, 2020-05-01)"
   id="svg8"
   version="1.1"
   viewBox="0 0 8.4666665 8.4666669"
   height="32"
   width="32">
  <defs
     id="defs2">
    <pattern
       id="EMFhbasepattern"
       patternUnits="userSpaceOnUse"
       width="6"
       height="6"
       x="0"
       y="0" />
    <pattern
       id="EMFhbasepattern-3"
       patternUnits="userSpaceOnUse"
       width="6"
       height="6"
       x="0"
       y="0" />
    <pattern
       id="EMFhbasepattern-2"
       patternUnits="userSpaceOnUse"
       width="6"
       height="6"
       x="0"
       y="0" />
    <pattern
       id="EMFhbasepattern-1"
       patternUnits="userSpaceOnUse"
       width="6"
       height="6"
       x="0"
       y="0" />
    <pattern
       id="EMFhbasepattern-5"
       patternUnits="userSpaceOnUse"
       width="6"
       height="6"
       x="0"
       y="0" />
  </defs>
  <sodipodi:namedview
     inkscape:document-rotation="0"
     inkscape:snap-global="false"
     guidehiopacity="0.49803922"
     guidehicolor="#ff4b4b"
     guideopacity="0.49803922"
     guidecolor="#af0000"
     showguides="true"
     inkscape:window-maximized="1"
     inkscape:window-y="-6"
     inkscape:window-x="-6"
     inkscape:window-height="812"
     inkscape:window-width="1440"
     units="px"
     showgrid="false"
     inkscape:current-layer="layer1"
     inkscape:document-units="px"
     inkscape:cy="17.599809"
     inkscape:cx="15.279492"
     inkscape:zoom="15.999999"
     inkscape:pageshadow="2"
     inkscape:pageopacity="0.0"
     borderopacity="1.0"
     bordercolor="#666666"
     pagecolor="#ffffff"
     id="base">
    <inkscape:grid
       dotted="false"
       enabled="true"
       visible="true"
       snapvisiblegridlinesonly="true"
       spacingy="0"
       spacingx="0"
       originy="0"
       originx="0"
       empspacing="1"
       id="grid815"
       type="xygrid" />
  </sodipodi:namedview>
  <metadata
     id="metadata5">
    <rdf:RDF>
      <cc:Work
         rdf:about="">
        <dc:format>image/svg+xml</dc:format>
        <dc:type
           rdf:resource="http://purl.org/dc/dcmitype/StillImage" />
        <dc:title></dc:title>
      </cc:Work>
    </rdf:RDF>
  </metadata>
  <g
     transform="translate(0,-288.53332)"
     id="layer1"
     inkscape:groupmode="layer"
     inkscape:label="Guides">
    <path
       inkscape:connector-curvature="0"
       id="rect1035-3"
       d="m 2.9618857,289.85624 v 0.21377 0.44001 H 0.52916663 v 0.21294 4.95411 H 7.9375 v -5.16705 H 5.5031724 v -0.65378 z m 0.4133611,0.42753 h 1.716977 v 0.22625 0.3926 H 3.3752468 Z M 0.94091943,290.9359 H 2.9618857 v 0.39427 h 2.5412867 v -8.6e-4 h 8.236e-4 v -0.39344 h 2.0217706 v 4.31534 H 0.94091943 Z m 0.54042557,0.69619 v 0.21046 2.71328 h 2.5750632 v -2.92374 z m 0.4101444,0.42422 h 1.7539702 v 1.76589 c -0.015659,-0.0553 -0.035168,-0.10966 -0.057903,-0.1622 -0.052454,-0.12121 -0.1854053,-0.17955 -0.2887095,-0.26701 0.025475,-0.0397 0.084285,-0.0606 0.094896,-0.10067 0.033348,-0.12604 0.027266,-0.23508 0.027345,-0.33356 -3.17e-5,-0.37059 -0.2925261,-0.67867 -0.6506016,-0.67873 -0.3581817,-1.1e-4 -0.6537864,0.30801 -0.6538181,0.67873 3.95e-5,0.0918 -0.01057,0.19419 0.01528,0.32024 0.0087,0.0425 0.070742,0.067 0.097309,0.11063 -0.1051576,0.0894 -0.2417409,0.14968 -0.2919262,0.27366 -0.018372,0.0454 -0.032775,0.0924 -0.04584,0.13974 z m 2.8147162,0.069 a 0.20668304,0.21377151 0 0 0 0,0.42754 h 2.1279256 a 0.20668304,0.21377151 0 0 0 0,-0.42754 z m -1.9389373,0.58142 v 8.5e-4 c 0.1334297,3e-5 0.2404447,0.10851 0.240457,0.2512 -8.44e-5,0.10672 -0.00161,0.18999 -0.00965,0.22042 -0.00806,0.0304 0.016215,0.006 -0.020909,0.0183 a 0.20589699,0.2129585 0 0 0 0.00884,0.41172 c 0.1023345,0.0261 0.1687634,0.0934 0.2251773,0.22375 0.032459,0.075 0.037218,0.18739 0.051469,0.28863 H 2.2718724 c 0.012822,-0.10277 0.015453,-0.21692 0.04584,-0.29196 0.052602,-0.12989 0.1108958,-0.19447 0.2123101,-0.22042 a 0.20589699,0.2129585 0 0 0 0.012064,-0.41172 c -0.035188,-0.0113 -0.00264,0.0238 -0.00884,-0.006 -0.00623,-0.0304 -0.00317,-0.11885 -0.00321,-0.23205 1.24e-5,-0.14278 0.1037691,-0.25207 0.2372404,-0.25204 z m 4.0893806,0.21959 a 0.20589699,0.2129585 0 0 0 -0.022517,8.5e-4 H 4.7062058 a 0.20589699,0.2129585 0 0 0 -0.017693,0 0.20589699,0.2129585 0 0 0 0.017693,0.4242 h 2.1279256 a 0.20589699,0.2129585 0 1 0 0.022517,-0.42503 z m -2.1504433,0.79935 a 0.20668344,0.21377192 0 1 0 0,0.42754 h 2.1279256 a 0.20668344,0.21377192 0 1 0 0,-0.42754 z"
       style="color:#000000;font-style:normal;font-variant:normal;font-weight:normal;font-stretch:normal;font-size:medium;line-height:normal;font-family:sans-serif;font-variant-ligatures:normal;font-variant-position:normal;font-variant-caps:normal;font-variant-numeric:normal;font-variant-alternates:normal;font-feature-settings:normal;text-indent:0;text-align:start;text-decoration:none;text-decoration-line:none;text-decoration-style:solid;text-decoration-color:#000000;letter-spacing:normal;word-spacing:normal;text-transform:none;writing-mode:lr-tb;direction:ltr;text-orientation:mixed;dominant-baseline:auto;baseline-shift:baseline;text-anchor:start;white-space:normal;shape-padding:0;clip-rule:nonzero;display:inline;overflow:visible;visibility:visible;opacity:1;isolation:auto;mix-blend-mode:normal;color-interpolation:sRGB;color-interpolation-filters:linearRGB;solid-color:#000000;solid-opacity:1;vector-effect:none;fill:#ffffff;fill-opacity:1;fill-rule:nonzero;stroke:none;stroke-width:0.26458332;stroke-linecap:round;stroke-linejoin:miter;stroke-miterlimit:4;stroke-dasharray:none;stroke-dashoffset:0;stroke-opacity:1;paint-order:normal;color-rendering:auto;image-rendering:auto;shape-rendering:auto;text-rendering:auto;enable-background:accumulate" />
  </g>
</svg>
