<?xml version="1.0" encoding="UTF-8" standalone="no"?>
<svg
   id="Layer_1"
   data-name="Layer 1"
   viewBox="0 0 144.26918 142.29999"
   version="1.1"
   sodipodi:docname="internet.svg"
   width="144.26918"
   height="142.29999"
   inkscape:version="1.1 (c68e22c387, 2021-05-23)"
   xmlns:inkscape="http://www.inkscape.org/namespaces/inkscape"
   xmlns:sodipodi="http://sodipodi.sourceforge.net/DTD/sodipodi-0.dtd"
   xmlns="http://www.w3.org/2000/svg"
   xmlns:svg="http://www.w3.org/2000/svg"
   xmlns:rdf="http://www.w3.org/1999/02/22-rdf-syntax-ns#"
   xmlns:cc="http://creativecommons.org/ns#"
   xmlns:dc="http://purl.org/dc/elements/1.1/">
  <sodipodi:namedview
     id="namedview11"
     pagecolor="#ffffff"
     bordercolor="#666666"
     borderopacity="1.0"
     inkscape:pageshadow="2"
     inkscape:pageopacity="0.0"
     inkscape:pagecheckerboard="0"
     showgrid="false"
     inkscape:zoom="2.0703125"
     inkscape:cx="59.89434"
     inkscape:cy="73.660377"
     inkscape:window-width="1366"
     inkscape:window-height="715"
     inkscape:window-x="-8"
     inkscape:window-y="-8"
     inkscape:window-maximized="1"
     inkscape:current-layer="Layer_1" />
  <defs
     id="defs4">
    <style
       id="style2">.cls-1{fill:#3b4551;}</style>
  </defs>
  <title
     id="title6">a</title>
  <path
     class="cls-1"
     d="M 62.47166,0 A 62.49915,62.49915 0 1 0 124.9983,62.49914 62.58552,62.58552 0 0 0 62.47166,0 Z m 54.06517,58.37832 H 100.02621 A 95.38986,95.38986 0 0 0 95.08109,30.90614 h 11.42851 a 53.85161,53.85161 0 0 1 10.02723,27.47218 z M 99.20191,22.66452 h -7.2525 C 90.63063,19.66998 89.31202,16.97776 88.04824,14.6702 a 53.62127,53.62127 0 0 1 11.15367,7.99432 z M 66.59248,8.46147 a 53.41726,53.41726 0 0 1 8.68129,1.37361 c 0.05483,0.08233 0.10983,0.19233 0.16483,0.27465 a 77.06114,77.06114 0 0 1 7.39,12.55479 H 66.59248 Z m 0,22.4447 h 19.725 a 88.36906,88.36906 0 0 1 5.4671,27.47215 H 66.59248 Z M 49.50489,10.10973 a 1.676,1.676 0 0 0 0.19233,-0.27465 52.61315,52.61315 0 0 1 8.65363,-1.37361 v 14.20305 h -16.236 a 79.50809,79.50809 0 0 1 7.39004,-12.55479 z m 8.846,20.79644 V 58.37832 H 33.18641 a 88.40216,88.40216 0 0 1 5.43944,-27.47218 z m -21.45574,-16.236 c -1.23628,2.30757 -2.55489,4.99978 -3.8735,7.99432 H 25.76891 A 53.45007,53.45007 0 0 1 36.8951,14.6702 Z M 18.62622,30.68634 a 3.81491,3.81491 0 0 0 1.26361,0.21982 h 9.9724 A 95.42208,95.42208 0 0 0 24.94478,58.37831 H 8.43399 A 53.62586,53.62586 0 0 1 18.62622,30.68634 Z m 0,63.62559 A 53.62586,53.62586 0 0 1 8.43399,66.61993 h 16.51079 a 95.42208,95.42208 0 0 0 4.91745,27.47221 h -9.9724 a 3.81491,3.81491 0 0 0 -1.26361,0.2198 z m 7.14269,8.02182 h 7.25269 c 1.31861,2.99454 2.63722,5.68676 3.8735,7.99432 a 53.45007,53.45007 0 0 1 -11.12619,-7.99431 z m 32.58193,14.20305 a 52.61314,52.61314 0 0 1 -8.65363,-1.37361 1.676,1.676 0 0 0 -0.19233,-0.27465 79.50808,79.50808 0 0 1 -7.39,-12.55479 h 16.236 z m 0,-22.4447 h -19.725 A 88.40216,88.40216 0 0 1 33.18641,66.61996 h 25.16443 z m 17.08776,20.79644 c -0.055,0.0823 -0.11,0.19233 -0.16483,0.27465 a 53.41725,53.41725 0 0 1 -8.68129,1.37361 V 102.33376 H 82.82862 A 77.06114,77.06114 0 0 1 75.4386,114.88855 Z M 66.59248,94.09214 V 66.61996 h 25.19208 a 88.36906,88.36906 0 0 1 -5.46709,27.47218 z m 21.45574,16.236 c 1.26378,-2.30757 2.58239,-4.99978 3.90117,-7.99432 h 7.25252 a 53.62127,53.62127 0 0 1 -11.15368,7.99426 z m 18.46137,-16.236 h -11.4285 a 95.38986,95.38986 0 0 0 4.94512,-27.47215 h 16.51062 A 53.85161,53.85161 0 0 1 106.5096,94.09214 Z"
     id="path8"
     style="fill:#203c76;fill-opacity:1" />
  <g
     id="g917"
     transform="translate(3.3155987,7.1934796)">
    <g
       id="g889"
       stroke="none"
       stroke-width="1"
       fill="none"
       fill-rule="evenodd"
       style="fill:#ffffff;stroke:#ffffff;stroke-width:4.96742;stroke-miterlimit:4;stroke-dasharray:none"
       transform="matrix(-2.9981207,-0.54794087,-0.55778421,3.0519796,134.29063,64.904359)">
      <g
         id="g887"
         transform="translate(-140,-8159)"
         fill="#000000"
         style="fill:#ffffff;stroke:#ffffff;stroke-width:4.96742;stroke-miterlimit:4;stroke-dasharray:none">
        <g
           id="g885"
           transform="translate(56,160)"
           style="fill:#ffffff;stroke:#ffffff;stroke-width:4.96742;stroke-miterlimit:4;stroke-dasharray:none">
          <polygon
             id="polygon883"
             points="86.875,8019 84,8016.125 89.711,8010.46 85.176,8005.925 104,7999 97.075,8017.824 92.54,8013.289 "
             style="fill:#ffffff;stroke:#ffffff;stroke-width:4.96742;stroke-miterlimit:4;stroke-dasharray:none" />
        </g>
      </g>
    </g>
    <g
       id="Page-1"
       stroke="none"
       stroke-width="1"
       fill="none"
       fill-rule="evenodd"
       style="fill:#ffffff;stroke:#203c76;stroke-width:1.91055;stroke-miterlimit:4;stroke-dasharray:none"
       transform="matrix(-2.9981207,-0.54794087,-0.55778421,3.0519796,134.29063,64.904359)">
      <g
         id="Dribbble-Light-Preview"
         transform="translate(-140,-8159)"
         fill="#000000"
         style="fill:#ffffff;stroke:#203c76;stroke-width:1.91055;stroke-miterlimit:4;stroke-dasharray:none">
        <g
           id="icons"
           transform="translate(56,160)"
           style="fill:#ffffff;stroke:#203c76;stroke-width:1.91055;stroke-miterlimit:4;stroke-dasharray:none">
          <polygon
             id="mouse_pointer-[#6]"
             points="85.176,8005.925 104,7999 97.075,8017.824 92.54,8013.289 86.875,8019 84,8016.125 89.711,8010.46 "
             style="fill:#ffffff;stroke:#203c76;stroke-width:1.91055;stroke-miterlimit:4;stroke-dasharray:none" />
        </g>
      </g>
    </g>
  </g>
  <metadata
     id="metadata828">
    <rdf:RDF>
      <cc:Work
         rdf:about="">
        <dc:title>a</dc:title>
      </cc:Work>
    </rdf:RDF>
  </metadata>
</svg>
