<?xml version="1.0" encoding="UTF-8" standalone="no"?>
<!-- Generator: Adobe Illustrator 21.0.2, SVG Export Plug-In . SVG Version: 6.00 Build 0)  -->

<svg
   version="1.1"
   x="0px"
   y="0px"
   width="24px"
   height="24px"
   viewBox="0 0 24 24"
   enable-background="new 0 0 24 24"
   xml:space="preserve"
   id="svg44"
   sodipodi:docname="subscribe-o.svg"
   inkscape:version="1.1 (c68e22c387, 2021-05-23)"
   xmlns:inkscape="http://www.inkscape.org/namespaces/inkscape"
   xmlns:sodipodi="http://sodipodi.sourceforge.net/DTD/sodipodi-0.dtd"
   xmlns="http://www.w3.org/2000/svg"
   xmlns:svg="http://www.w3.org/2000/svg"><defs
   id="defs48" /><sodipodi:namedview
   id="namedview46"
   pagecolor="#ffffff"
   bordercolor="#666666"
   borderopacity="1.0"
   inkscape:pageshadow="2"
   inkscape:pageopacity="0.0"
   inkscape:pagecheckerboard="0"
   showgrid="false"
   inkscape:zoom="15.615275"
   inkscape:cx="9.2857796"
   inkscape:cy="10.726676"
   inkscape:window-width="1366"
   inkscape:window-height="715"
   inkscape:window-x="-8"
   inkscape:window-y="-8"
   inkscape:window-maximized="1"
   inkscape:current-layer="Black" />
<rect
   style="display:none;fill:#808080;stroke:none;stroke-width:3.5"
   id="rect887"
   width="30.034695"
   height="27.40906"
   x="-3.0739133"
   y="-1.7290761" />
<g
   id="Frames-24px"
   style="display:none">
	<rect
   fill="none"
   width="24"
   height="24"
   id="rect41"
   x="0"
   y="0" />
</g>
<g
   inkscape:groupmode="layer"
   id="layer1"
   inkscape:label="Layer 1"
   style="display:inline"><g
     id="Black"
     inkscape:groupmode="layer">
	<g
   id="g38"
   style="display:inline;stroke:#ffffff">
		
			<rect
   x="0.5"
   y="19.5"
   fill="none"
   stroke="#58595b"
   stroke-linecap="round"
   stroke-linejoin="round"
   stroke-miterlimit="10"
   width="23"
   height="4"
   id="rect2"
   style="stroke:#ffffff" />
		<polyline
   fill="none"
   stroke="#58595b"
   stroke-linecap="round"
   stroke-linejoin="round"
   stroke-miterlimit="10"
   points="12.5,6.5     4,6.5 2,19.5   "
   id="polyline4"
   style="stroke:#ffffff" />
		<polyline
   fill="none"
   stroke="#58595b"
   stroke-linecap="round"
   stroke-linejoin="round"
   stroke-miterlimit="10"
   points="22,19.5     20,6.5 18.5,6.5   "
   id="polyline6"
   style="stroke:#ffffff" />
		
			<line
   fill="none"
   stroke="#58595b"
   stroke-linecap="round"
   stroke-linejoin="round"
   stroke-miterlimit="10"
   x1="7"
   y1="14.5"
   x2="8"
   y2="14.5"
   id="line8"
   style="stroke:#ffffff" />
		
			<line
   fill="none"
   stroke="#58595b"
   stroke-linecap="round"
   stroke-linejoin="round"
   stroke-miterlimit="10"
   x1="10"
   y1="14.5"
   x2="11"
   y2="14.5"
   id="line10"
   style="stroke:#ffffff" />
		
			<line
   fill="none"
   stroke="#58595b"
   stroke-linecap="round"
   stroke-linejoin="round"
   stroke-miterlimit="10"
   x1="13"
   y1="14.5"
   x2="14"
   y2="14.5"
   id="line12"
   style="stroke:#ffffff" />
		
			<line
   fill="none"
   stroke="#58595b"
   stroke-linecap="round"
   stroke-linejoin="round"
   stroke-miterlimit="10"
   x1="16"
   y1="14.5"
   x2="17"
   y2="14.5"
   id="line14"
   style="stroke:#ffffff" />
		
			<line
   fill="none"
   stroke="#58595b"
   stroke-linecap="round"
   stroke-linejoin="round"
   stroke-miterlimit="10"
   x1="5.5"
   y1="16.5"
   x2="6.5"
   y2="16.5"
   id="line16"
   style="stroke:#ffffff" />
		
			<line
   fill="none"
   stroke="#58595b"
   stroke-linecap="round"
   stroke-linejoin="round"
   stroke-miterlimit="10"
   x1="8.5"
   y1="16.5"
   x2="9.5"
   y2="16.5"
   id="line18"
   style="stroke:#ffffff" />
		
			<line
   fill="none"
   stroke="#58595b"
   stroke-linecap="round"
   stroke-linejoin="round"
   stroke-miterlimit="10"
   x1="11.5"
   y1="16.5"
   x2="12.5"
   y2="16.5"
   id="line20"
   style="stroke:#ffffff" />
		
			<line
   fill="none"
   stroke="#58595b"
   stroke-linecap="round"
   stroke-linejoin="round"
   stroke-miterlimit="10"
   x1="14.5"
   y1="16.5"
   x2="15.5"
   y2="16.5"
   id="line22"
   style="stroke:#ffffff" />
		
			<line
   fill="none"
   stroke="#58595b"
   stroke-linecap="round"
   stroke-linejoin="round"
   stroke-miterlimit="10"
   x1="17.5"
   y1="16.5"
   x2="18.5"
   y2="16.5"
   id="line24"
   style="stroke:#ffffff" />
		<polygon
   fill="none"
   stroke="#58595b"
   stroke-linecap="round"
   stroke-linejoin="round"
   stroke-miterlimit="10"
   points="18.5,0.5 17,2 15.5,0.5 14,2 12.5,0.5 12.5,10.5 18.5,10.5 "
   id="polygon26"
   style="stroke:#ffffff" />
		
			<line
   fill="none"
   stroke="#58595b"
   stroke-linecap="round"
   stroke-linejoin="round"
   stroke-miterlimit="10"
   x1="14.5"
   y1="4.5"
   x2="16.5"
   y2="4.5"
   id="line28"
   style="stroke:#ffffff" />
		
			<line
   fill="none"
   stroke="#58595b"
   stroke-linecap="round"
   stroke-linejoin="round"
   stroke-miterlimit="10"
   x1="14.5"
   y1="6.5"
   x2="16.5"
   y2="6.5"
   id="line30"
   style="stroke:#ffffff" />
		
			<line
   fill="none"
   stroke="#58595b"
   stroke-linecap="round"
   stroke-linejoin="round"
   stroke-miterlimit="10"
   x1="14.5"
   y1="8.5"
   x2="15"
   y2="8.5"
   id="line32"
   style="fill:#ffffff;stroke:#ffffff" />
		
			<rect
   x="5.5"
   y="8.5"
   fill="none"
   stroke="#58595b"
   stroke-linecap="round"
   stroke-linejoin="round"
   stroke-miterlimit="10"
   width="4"
   height="3"
   id="rect34"
   style="stroke:#ffffff" />
		
			<line
   fill="none"
   stroke="#58595b"
   stroke-linecap="round"
   stroke-linejoin="round"
   stroke-miterlimit="10"
   x1="10.5"
   y1="21.5"
   x2="13.5"
   y2="21.5"
   id="line36"
   style="stroke:#ffffff" />
	</g>
<path
   style="display:none;fill:#ffffff;stroke:none;stroke-width:0.22414"
   d="M 13.032111,5.8819189 V 1.8056397 l 0.379485,0.3619674 c 0.560217,0.5343566 0.630231,0.5209601 1.439538,-0.2754404 l 0.647737,-0.6374078 0.645921,0.6374078 c 0.807384,0.7967421 0.878168,0.8102917 1.438904,0.2754404 l 0.379485,-0.3619674 v 4.0762792 4.0762792 h -2.465535 -2.465535 z m 2.353465,2.9552461 c 0.191464,-0.2217822 0.186166,-0.507749 -0.0131,-0.7070135 -0.136564,-0.1365637 -0.215257,-0.157189 -0.599742,-0.157189 -0.563534,0 -0.780026,0.140084 -0.780026,0.5047269 0,0.4365758 0.267419,0.6016379 0.896558,0.5533922 0.280556,-0.021514 0.381537,-0.060969 0.49631,-0.1939166 z m 1.46879,-1.9640432 C 17.049886,6.68944 17.054151,6.3390536 16.86334,6.135944 16.727261,5.9910947 16.696433,5.9877269 15.50662,5.9877269 c -1.161873,0 -1.224246,0.00636 -1.365694,0.1392427 -0.19552,0.1836818 -0.199786,0.5340683 -0.009,0.7371779 0.136079,0.1448492 0.166907,0.1482171 1.35672,0.1482171 1.161873,0 1.224246,-0.00636 1.365694,-0.1392428 z m -0.02052,-1.9787206 c 0.124754,-0.098132 0.168736,-0.1910368 0.168736,-0.3564293 0,-0.5140614 -0.212984,-0.5988062 -1.504937,-0.5988062 -1.291954,0 -1.504937,0.084745 -1.504937,0.5988062 0,0.1653925 0.04398,0.2582978 0.168736,0.3564293 0.156691,0.1232528 0.252077,0.1327278 1.336201,0.1327278 1.084124,0 1.17951,-0.00948 1.336201,-0.1327278 z"
   id="path1405" /><path
   style="display:none;fill:#ffffff;stroke:none;stroke-width:0.22414"
   d="M 3.5332384,13.048121 C 4.0365989,9.781288 4.4489639,7.0868109 4.4496048,7.0603945 c 6.41e-4,-0.026416 1.6857676,-0.04803 3.7447257,-0.04803 H 11.93789 l 0.01878,1.8554714 c 0.01856,1.8335631 0.0205,1.8571931 0.16465,2.0012461 l 0.145869,0.145774 h 3.230455 3.230455 l 0.145869,-0.145774 c 0.144146,-0.144053 0.14609,-0.167683 0.16465,-2.0012461 l 0.01878,-1.8554714 h 0.253388 c 0.139364,0 0.253388,0.029118 0.253388,0.064707 0,0.035589 0.403451,2.6865388 0.896558,5.8910005 0.493107,3.204461 0.896558,5.869819 0.896558,5.923019 0,0.08583 -1.055037,0.09673 -9.369628,0.09673 H 2.6180373 Z M 6.8641475,16.86334 C 7.0672231,16.67256 7.0631644,16.343122 6.8551775,16.135134 6.7074527,15.987409 6.6558278,15.977945 5.997734,15.977945 c -0.799745,0 -0.9492572,0.06634 -1.0103554,0.448299 -0.027204,0.170065 -0.00243,0.266653 0.1026555,0.400249 0.136894,0.174033 0.1471999,0.17609 0.882205,0.17609 0.6754286,0 0.7572978,-0.01278 0.89191,-0.139243 z M 9.8895103,16.83385 C 10.069159,16.605459 10.059502,16.329586 9.865049,16.135134 9.7170548,15.987139 9.6663173,15.977945 8.9976002,15.977945 c -0.668717,0 -0.7194542,0.0092 -0.867449,0.157189 -0.1944523,0.194452 -0.2041103,0.470325 -0.024461,0.698713 0.1300526,0.165335 0.1480296,0.168736 0.89191,0.168736 0.7438807,0 0.7618573,-0.0034 0.8919101,-0.168736 z m 3.0098737,0 c 0.179649,-0.228388 0.169991,-0.504261 -0.02446,-0.698713 -0.147994,-0.147995 -0.198731,-0.157189 -0.867448,-0.157189 -0.668717,0 -0.719455,0.0092 -0.867449,0.157189 -0.201016,0.201015 -0.208876,0.515997 -0.01795,0.719232 0.130231,0.138624 0.187958,0.148217 0.89191,0.148217 0.736843,0 0.755459,-0.0035 0.885396,-0.168736 z m 2.931161,0.0726 c 0.272037,-0.190542 0.219788,-0.773828 -0.07961,-0.888718 -0.05702,-0.02188 -0.40001,-0.03978 -0.76221,-0.03978 -0.569263,0 -0.681421,0.01799 -0.827281,0.132728 -0.218475,0.171853 -0.23258,0.527516 -0.02949,0.743693 0.129334,0.137669 0.189842,0.148217 0.850289,0.148217 0.528656,0 0.746254,-0.02466 0.848304,-0.09614 z m 2.930265,0.05636 c 0.152344,-0.05846 0.304891,-0.390988 0.254967,-0.555789 -0.02347,-0.07749 -0.102027,-0.205729 -0.174562,-0.284978 -0.121015,-0.132218 -0.188294,-0.14409 -0.816522,-0.14409 -0.595661,0 -0.706567,0.01725 -0.853374,0.132728 -0.21528,0.169339 -0.236499,0.567988 -0.04066,0.76383 0.112439,0.112439 0.213466,0.12808 0.827281,0.12808 0.38456,0 0.74585,-0.0179 0.802867,-0.03978 z M 8.2885888,14.955755 c 0.1950242,-0.104374 0.2900008,-0.41758 0.1956788,-0.645294 -0.044326,-0.107012 -0.1323812,-0.222284 -0.1956788,-0.256159 -0.063298,-0.03388 -0.4249166,-0.06159 -0.8035977,-0.06159 -0.6187722,0 -0.7035239,0.0141 -0.8367283,0.139243 -0.1955203,0.183682 -0.1997859,0.534069 -0.00897,0.737178 0.1290187,0.137334 0.1904565,0.148217 0.8367282,0.148217 0.3836171,0 0.7492745,-0.02772 0.8125721,-0.06159 z m 3.0577802,-0.0825 c 0.07134,-0.07925 0.147187,-0.193709 0.168561,-0.254354 0.054,-0.153228 -0.0734,-0.488032 -0.214421,-0.563506 -0.06442,-0.03448 -0.423511,-0.06269 -0.797972,-0.06269 -0.374462,0 -0.7335491,0.02821 -0.7979726,0.06269 -0.1694731,0.0907 -0.2684134,0.415706 -0.1896316,0.622918 0.1121402,0.294951 0.229508,0.334805 0.9924512,0.336996 0.655785,0.0019 0.719068,-0.0088 0.838985,-0.142054 z m 2.989923,0.01136 c 0.218475,-0.171853 0.23258,-0.527517 0.02949,-0.743693 -0.129335,-0.137669 -0.189843,-0.148217 -0.85029,-0.148217 -0.793158,0 -0.956605,0.06044 -1.026714,0.379645 -0.04378,0.199304 0.09217,0.543541 0.237793,0.602132 0.04477,0.01801 0.387303,0.03502 0.761189,0.0378 0.595326,0.0044 0.700758,-0.01144 0.848528,-0.127672 z m 3.021421,-0.02446 c 0.201016,-0.201015 0.208875,-0.515997 0.01795,-0.719232 -0.129717,-0.138076 -0.189065,-0.148217 -0.867449,-0.148217 -0.687771,0 -0.736935,0.0087 -0.885395,0.157189 -0.09908,0.09909 -0.157189,0.230357 -0.157189,0.35513 0,0.124773 0.0581,0.256046 0.157189,0.35513 0.147994,0.147995 0.198732,0.157189 0.867449,0.157189 0.668717,0 0.719454,-0.0092 0.867449,-0.157189 z M 9.8895103,11.838738 C 10.016178,11.677706 10.022238,11.592776 10.022238,9.9786708 V 8.28734 L 9.865049,8.1301512 9.7078606,7.9729625 H 7.532832 c -1.1962656,0 -2.2216781,0.017901 -2.2786944,0.03978 -0.2581483,0.099061 -0.2910485,0.3298036 -0.2910485,2.0412465 v 1.639107 l 0.1571887,0.157189 0.1571888,0.157189 h 2.2396579 2.239658 z"
   id="path1444" /><path
   style="display:none;fill:#ffffff;stroke:none;stroke-width:0.22414"
   d="M 6.0517667,10.022238 V 9.0616401 h 1.4729168 1.4729167 v 0.9605979 0.960598 H 7.5246835 6.0517667 Z"
   id="path1483" /><path
   style="display:none;fill:#ffffff;stroke:none;stroke-width:0.22414"
   d="M 1.0566577,21.485373 V 20.012456 H 12.007474 22.95829 v 1.472917 1.472917 H 12.007474 1.0566577 Z m 12.5729383,0.507539 c 0.437362,-0.121447 0.531366,-0.657771 0.160786,-0.917336 -0.125303,-0.08777 -0.386284,-0.102229 -1.813168,-0.100485 -1.209202,0.0015 -1.694692,0.02345 -1.768406,0.08005 -0.3671125,0.28186 -0.2683034,0.854813 0.165649,0.960532 0.260681,0.06351 3.013794,0.04426 3.255139,-0.02276 z"
   id="path1522" /></g></g></svg>
