<?xml version="1.0" encoding="UTF-8" standalone="no"?>
<!-- Generator: Adobe Illustrator 23.0.3, SVG Export Plug-In . SVG Version: 6.00 Build 0)  -->

<svg
   version="1.1"
   id="Icons"
   x="0px"
   y="0px"
   viewBox="0 0 28.049999 18"
   xml:space="preserve"
   sodipodi:docname="view-d.svg"
   width="28.049999"
   height="18"
   inkscape:version="1.1 (c68e22c387, 2021-05-23)"
   xmlns:inkscape="http://www.inkscape.org/namespaces/inkscape"
   xmlns:sodipodi="http://sodipodi.sourceforge.net/DTD/sodipodi-0.dtd"
   xmlns="http://www.w3.org/2000/svg"
   xmlns:svg="http://www.w3.org/2000/svg"><defs
   id="defs7" /><sodipodi:namedview
   id="namedview5"
   pagecolor="#ffffff"
   bordercolor="#666666"
   borderopacity="1.0"
   inkscape:pageshadow="2"
   inkscape:pageopacity="0.0"
   inkscape:pagecheckerboard="0"
   showgrid="false"
   inkscape:zoom="11.711456"
   inkscape:cx="7.4713169"
   inkscape:cy="10.289071"
   inkscape:window-width="1366"
   inkscape:window-height="715"
   inkscape:window-x="-8"
   inkscape:window-y="-8"
   inkscape:window-maximized="1"
   inkscape:current-layer="Icons" />
<path
   d="m 27.825,8.4 c -0.2,-0.3 -6.2,-8.4 -13.8,-8.4 -7.6,0 -13.6,8.1 -13.8,8.4 -0.3,0.4 -0.3,0.8 0,1.2 0.2,0.3 6.2,8.4 13.8,8.4 7.6,0 13.6,-8.1 13.8,-8.4 0.3,-0.4 0.3,-0.8 0,-1.2 z m -13.8,5.6 c -2.8,0 -5,-2.2 -5,-5 0,-2.8 2.2,-5 5,-5 2.8,0 5,2.2 5,5 0,2.8 -2.2,5 -5,5 z"
   id="path2"
   style="fill:#13141d;fill-opacity:1" />
</svg>
